:FULLY-SPECIFIED
:FORCE-ALL-JOINTS-BE-3DOF
:DEGREES
1835
root 6.43486 13.9531 27.7801 -21.222 54.4772 -23.7554
lfemur -53.8415 26.9998 1.88179
ltibia 67.0249 -0 0
lfoot -5.3222 -7.61335 0.199395
ltoes -21.7267 0 0
rfemur 4.06693 -5.35534 17.8566
rtibia 48.0603 -0 0
rfoot -26.1843 -29.873 -0.0339782
rtoes -29.0891 0 0
lowerback 14.0382 4.5811 6.52999
upperback -0.549601 7.68491 4.71332
thorax -8.28945 3.58754 -0.206934
lowerneck -3.19872 11.447 4.19026
upperneck 6.92558 15.3652 -3.12142
head 3.51577 7.64456 -1.04568
lclavicle 0 0 0
lhumerus 62.2394 15.2607 108.13
lradius 10.1952 -0 0
lwrist -85.2045 0 0
lhand -32.1916 41.479 -0.0383677
lfingers 0 0 0
lthumb -5.43325 71.374 -0.0349431
rclavicle 0 0 0
rhumerus -72.2289 10.9151 -83.0688
rradius 125.156 -0 0
rwrist -43.4734 180 180
rhand -59.5077 -75.5862 2.72985
rfingers 0 0 0
rthumb -32.1148 -95.7872 1.4523
1836
root 6.46117 13.9474 27.7833 -21.0549 54.2271 -23.7433
lfemur -54.0956 27.4623 1.85848
ltibia 67.7479 -0 0
lfoot -5.88678 -7.79446 0.172362
ltoes -22.4317 0 0
rfemur 4.23142 -5.17933 17.8096
rtibia 47.8152 -0 0
rfoot -26.0458 -29.9995 -0.0293787
rtoes -29.3188 0 0
lowerback 14.0362 4.65603 6.52428
upperback -0.565731 7.78887 4.75185
thorax -8.3071 3.63836 -0.183405
lowerneck -3.0998 11.6216 4.35073
upperneck 6.86766 15.6055 -3.28896
head 3.50646 7.76324 -1.11588
lclavicle 0 0 0
lhumerus 62.352 15.3696 108.314
lradius 10.1749 -0 0
lwrist -85.6459 0 0
lhand -32.0165 41.366 -0.0331738
lfingers 0 0 0
lthumb -5.26429 71.2673 -0.0302129
rclavicle 0 0 0
rhumerus -72.5091 11.03 -83.2256
rradius 125.306 -0 0
rwrist -44.6346 180 180
rhand -59.1006 -72.714 2.34389
rfingers 0 0 0
rthumb -31.6941 -94.1068 1.25276
1837
root 6.48484 13.9423 27.7863 -20.9005 53.9944 -23.7333
lfemur -54.3332 27.8926 1.83461
ltibia 68.4207 -0 0
lfoot -6.41207 -7.96274 0.145604
ltoes -23.0877 0 0
rfemur 4.38432 -5.01541 17.7664
rtibia 47.5871 -0 0
rfoot -25.9169 -30.1173 -0.0248239
rtoes -29.5326 0 0
lowerback 14.0343 4.72576 6.51896
upperback -0.580681 7.88563 4.78768
thorax -8.32351 3.68567 -0.161522
lowerneck -3.00724 11.7839 4.50043
upperneck 6.81305 15.829 -3.44526
head 3.49766 7.87366 -1.18125
lclavicle 0 0 0
lhumerus 62.4573 15.4707 108.485
lradius 10.156 -0 0
lwrist -86.0566 0 0
lhand -31.8536 41.2608 -0.0280305
lfingers 0 0 0
lthumb -5.10707 71.1681 -0.0255287
rclavicle 0 0 0
rhumerus -72.7702 11.1361 -83.3719
rradius 125.445 -0 0
rwrist -45.7151 180 180
rhand -58.7398 -70.0445 1.96686
rfingers 0 0 0
rthumb -31.3081 -92.5446 1.05608
1838
root 6.50591 13.9378 27.789 -20.7593 53.7804 -23.7251
lfemur -54.5527 28.2882 1.81079
ltibia 69.0394 -0 0
lfoot -6.89502 -8.11726 0.11964
ltoes -23.691 0 0
rfemur 4.52477 -4.86459 17.727
rtibia 47.3773 -0 0
rfoot -25.7984 -30.2255 -0.020402
rtoes -29.7292 0 0
lowerback 14.0325 4.78988 6.51406
upperback -0.594377 7.97461 4.82062
thorax -8.33858 3.72917 -0.141411
lowerneck -2.9217 11.9329 4.6384
upperneck 6.76222 16.0343 -3.58934
head 3.48946 7.97519 -1.24138
lclavicle 0 0 0
lhumerus 62.5544 15.5633 108.643
lradius 10.1386 -0 0
lwrist -86.4343 0 0
lhand -31.7038 41.1641 -0.0230372
lfingers 0 0 0
lthumb -4.96252 71.0768 -0.0209811
rclavicle 0 0 0
rhumerus -73.0106 11.2332 -83.507
rradius 125.573 -0 0
rwrist -46.7087 180 180
rhand -58.4239 -67.5924 1.60569
rfingers 0 0 0
rthumb -30.958 -91.1094 0.866006
1839
root 6.5244 13.9338 27.7915 -20.632 53.5865 -23.7184
lfemur -54.7525 28.6466 1.78763
ltibia 69.6 -0 0
lfoot -7.33257 -8.25708 0.0949878
ltoes -24.2376 0 0
rfemur 4.65192 -4.72784 17.6917
rtibia 47.1873 -0 0
rfoot -25.6911 -30.3236 -0.0162017
rtoes -29.9074 0 0
lowerback 14.0309 4.84798 6.50962
upperback -0.606745 8.05525 4.85045
thorax -8.35223 3.76859 -0.123197
lowerneck -2.84383 12.0678 4.76368
upperneck 6.71565 16.2203 -3.72019
head 3.48193 8.06719 -1.29589
lclavicle 0 0 0
lhumerus 62.6426 15.647 108.786
lradius 10.1229 -0 0
lwrist -86.7766 0 0
lhand -31.5681 41.0765 -0.0182943
lfingers 0 0 0
lthumb -4.83153 70.9942 -0.0166616
rclavicle 0 0 0
rhumerus -73.2287 11.3206 -83.6298
rradius 125.689 -0 0
rwrist -47.609 180 180
rhand -58.1512 -65.3725 1.26702
rfingers 0 0 0
rthumb -30.6449 -89.8099 0.686249
1840
root 6.54034 13.9303 27.7937 -20.5194 53.414 -23.7132
lfemur -54.9309 28.9653 1.76577
ltibia 70.0987 -0 0
lfoot -7.72169 -8.38127 0.0721658
ltoes -24.7237 0 0
rfemur 4.76492 -4.60615 17.6605
rtibia 47.0182 -0 0
rfoot -25.5956 -30.4108 -0.0123116
rtoes -30.0658 0 0
lowerback 14.0294 4.89966 6.50567
upperback -0.617712 8.12697 4.87698
thorax -8.36435 3.80366 -0.107004
lowerneck -2.77428 12.1876 4.87532
upperneck 6.67382 16.3856 -3.8368
head 3.47516 8.149 -1.3444
lclavicle 0 0 0
lhumerus 62.7214 15.7213 108.914
lradius 10.1089 -0 0
lwrist -87.0809 0 0
lhand -31.4474 40.9986 -0.0139016
lfingers 0 0 0
lthumb -4.71504 70.9206 -0.012661
rclavicle 0 0 0
rhumerus -73.423 11.398 -83.7394
rradius 125.793 -0 0
rwrist -48.4098 180 180
rhand -57.9199 -63.3997 0.957141
rfingers 0 0 0
rthumb -30.37 -88.655 0.520445
1841
root 6.55375 13.9273 27.7956 -20.422 53.2643 -23.7091
lfemur -55.0863 29.2418 1.74583
ltibia 70.5313 -0 0
lfoot -8.05931 -8.48892 0.0516783
ltoes -25.1456 0 0
rfemur 4.86291 -4.5005 17.6337
rtibia 46.8716 -0 0
rfoot -25.5127 -30.4865 -0.00881802
rtoes -30.2033 0 0
lowerback 14.0282 4.9445 6.50224
upperback -0.627203 8.18921 4.89999
thorax -8.37487 3.83409 -0.0929583
lowerneck -2.71372 12.2914 4.97236
upperneck 6.6372 16.529 -3.93818
head 3.46923 8.21999 -1.3865
lclavicle 0 0 0
lhumerus 62.7898 15.7857 109.025
lradius 10.0968 -0 0
lwrist -87.3451 0 0
lhand -31.3427 40.9311 -0.00995683
lfingers 0 0 0
lthumb -4.61396 70.8568 -0.00906826
rclavicle 0 0 0
rhumerus -73.5917 11.4649 -83.8347
rradius 125.882 -0 0
rwrist -49.1047 180 180
rhand -57.728 -61.689 0.68192
rfingers 0 0 0
rthumb -30.1342 -87.6536 0.372101
1842
root 6.56466 13.9249 27.7972 -20.3406 53.1388 -23.706
lfemur -55.217 29.4736 1.72839
ltibia 70.8942 -0 0
lfoot -8.3424 -8.57909 0.0340099
ltoes -25.4994 0 0
rfemur 4.94503 -4.41187 17.6113
rtibia 46.7485 -0 0
rfoot -25.4433 -30.55 -0.00580412
rtoes -30.3186 0 0
lowerback 14.0272 4.9821 6.49937
upperback -0.635144 8.24141 4.91927
thorax -8.38368 3.85962 -0.0811839
lowerneck -2.66277 12.3784 5.05384
upperneck 6.60628 16.6492 -4.02332
head 3.46421 8.27952 -1.42183
lclavicle 0 0 0
lhumerus 62.8473 15.8395 109.118
lradius 10.0866 -0 0
lwrist -87.5666 0 0
lhand -31.2549 40.8744 -0.00655368
lfingers 0 0 0
lthumb -4.5292 70.8034 -0.00596882
rclavicle 0 0 0
rhumerus -73.7332 11.5207 -83.9148
rradius 125.957 -0 0
rwrist -49.6874 180 180
rhand -57.5734 -60.2552 0.446803
rfingers 0 0 0
rthumb -29.9385 -86.8142 0.244547
1843
root 6.57309 13.923 27.7985 -20.2759 53.0388 -23.7037
lfemur -55.3214 29.6582 1.71404
ltibia 71.1832 -0 0
lfoot -8.56789 -8.65087 0.019616
ltoes -25.7812 0 0
rfemur 5.01042 -4.34124 17.5936
rtibia 46.6506 -0 0
rfoot -25.3879 -30.6005 -0.0033481
rtoes -30.4104 0 0
lowerback 14.0263 5.01206 6.49707
upperback -0.641458 8.28299 4.93464
thorax -8.3907 3.87995 -0.0718066
lowerneck -2.62208 12.4477 5.11884
upperneck 6.58149 16.7449 -4.09124
head 3.46019 8.32694 -1.44997
lclavicle 0 0 0
lhumerus 62.8932 15.8823 109.192
lradius 10.0785 -0 0
lwrist -87.743 0 0
lhand -31.1849 40.8292 -0.00378046
lfingers 0 0 0
lthumb -4.46168 70.7608 -0.00344309
rclavicle 0 0 0
rhumerus -73.8461 11.5651 -83.9787
rradius 126.017 -0 0
rwrist -50.1515 180 180
rhand -57.4546 -59.1135 0.25678
rfingers 0 0 0
rthumb -29.7839 -86.146 0.140891
